<mxfile host="app.diagrams.net" agent="Mozilla/5.0 (Windows NT 10.0; Win64; x64) AppleWebKit/537.36 (KHTML, like Gecko) Chrome/140.0.0.0 Safari/537.36" version="28.2.3">
  <diagram name="Trang-1" id="9NIwBrPPvYkjaQRhQx7f">
    <mxGraphModel dx="1042" dy="527" grid="1" gridSize="10" guides="1" tooltips="1" connect="1" arrows="1" fold="1" page="1" pageScale="1" pageWidth="827" pageHeight="1169" math="0" shadow="0">
      <root>
        <mxCell id="0" />
        <mxCell id="1" parent="0" />
        <mxCell id="57mR0CMsIzaq-gKKp2ke-3" value="" style="edgeStyle=orthogonalEdgeStyle;rounded=0;orthogonalLoop=1;jettySize=auto;html=1;" parent="1" source="57mR0CMsIzaq-gKKp2ke-1" target="57mR0CMsIzaq-gKKp2ke-2" edge="1">
          <mxGeometry relative="1" as="geometry" />
        </mxCell>
        <mxCell id="57mR0CMsIzaq-gKKp2ke-1" value="Bắt đầu" style="ellipse;whiteSpace=wrap;html=1;" parent="1" vertex="1">
          <mxGeometry x="330" y="40" width="120" height="80" as="geometry" />
        </mxCell>
        <mxCell id="eM-Wl2CZVnbGgz_lJjR4-2" value="" style="edgeStyle=orthogonalEdgeStyle;rounded=0;orthogonalLoop=1;jettySize=auto;html=1;" edge="1" parent="1" source="57mR0CMsIzaq-gKKp2ke-2" target="eM-Wl2CZVnbGgz_lJjR4-1">
          <mxGeometry relative="1" as="geometry" />
        </mxCell>
        <mxCell id="57mR0CMsIzaq-gKKp2ke-2" value="Nhập N" style="shape=parallelogram;perimeter=parallelogramPerimeter;whiteSpace=wrap;html=1;fixedSize=1;" parent="1" vertex="1">
          <mxGeometry x="330" y="210" width="120" height="60" as="geometry" />
        </mxCell>
        <mxCell id="eM-Wl2CZVnbGgz_lJjR4-4" value="" style="edgeStyle=orthogonalEdgeStyle;rounded=0;orthogonalLoop=1;jettySize=auto;html=1;" edge="1" parent="1" source="eM-Wl2CZVnbGgz_lJjR4-1" target="eM-Wl2CZVnbGgz_lJjR4-3">
          <mxGeometry relative="1" as="geometry" />
        </mxCell>
        <mxCell id="eM-Wl2CZVnbGgz_lJjR4-1" value="Đặt i=1&lt;div&gt;s=0&amp;nbsp;&lt;/div&gt;" style="whiteSpace=wrap;html=1;" vertex="1" parent="1">
          <mxGeometry x="330" y="350" width="120" height="60" as="geometry" />
        </mxCell>
        <mxCell id="eM-Wl2CZVnbGgz_lJjR4-8" value="" style="edgeStyle=orthogonalEdgeStyle;rounded=0;orthogonalLoop=1;jettySize=auto;html=1;" edge="1" parent="1" source="eM-Wl2CZVnbGgz_lJjR4-3" target="eM-Wl2CZVnbGgz_lJjR4-7">
          <mxGeometry relative="1" as="geometry" />
        </mxCell>
        <mxCell id="eM-Wl2CZVnbGgz_lJjR4-9" value="Y" style="edgeLabel;html=1;align=center;verticalAlign=middle;resizable=0;points=[];" vertex="1" connectable="0" parent="eM-Wl2CZVnbGgz_lJjR4-8">
          <mxGeometry x="-0.0933" relative="1" as="geometry">
            <mxPoint as="offset" />
          </mxGeometry>
        </mxCell>
        <mxCell id="eM-Wl2CZVnbGgz_lJjR4-3" value="i ≤ N ?" style="rhombus;whiteSpace=wrap;html=1;" vertex="1" parent="1">
          <mxGeometry x="350" y="480" width="80" height="80" as="geometry" />
        </mxCell>
        <mxCell id="eM-Wl2CZVnbGgz_lJjR4-11" value="" style="edgeStyle=orthogonalEdgeStyle;rounded=0;orthogonalLoop=1;jettySize=auto;html=1;" edge="1" parent="1" source="eM-Wl2CZVnbGgz_lJjR4-7" target="eM-Wl2CZVnbGgz_lJjR4-10">
          <mxGeometry relative="1" as="geometry" />
        </mxCell>
        <mxCell id="eM-Wl2CZVnbGgz_lJjR4-7" value="S=S+i&amp;nbsp;&lt;div&gt;i=i+1&amp;nbsp;&lt;/div&gt;" style="whiteSpace=wrap;html=1;" vertex="1" parent="1">
          <mxGeometry x="490" y="490" width="120" height="60" as="geometry" />
        </mxCell>
        <mxCell id="eM-Wl2CZVnbGgz_lJjR4-10" value="In ra S" style="shape=parallelogram;perimeter=parallelogramPerimeter;whiteSpace=wrap;html=1;fixedSize=1;" vertex="1" parent="1">
          <mxGeometry x="490" y="630" width="120" height="60" as="geometry" />
        </mxCell>
        <mxCell id="eM-Wl2CZVnbGgz_lJjR4-12" value="" style="endArrow=classic;html=1;rounded=0;exitX=0;exitY=1;exitDx=0;exitDy=0;entryX=0.06;entryY=0.867;entryDx=0;entryDy=0;entryPerimeter=0;" edge="1" parent="1" source="eM-Wl2CZVnbGgz_lJjR4-3" target="eM-Wl2CZVnbGgz_lJjR4-10">
          <mxGeometry width="50" height="50" relative="1" as="geometry">
            <mxPoint x="440" y="610" as="sourcePoint" />
            <mxPoint x="490" y="560" as="targetPoint" />
            <Array as="points">
              <mxPoint x="370" y="680" />
            </Array>
          </mxGeometry>
        </mxCell>
        <mxCell id="eM-Wl2CZVnbGgz_lJjR4-13" value="N" style="edgeLabel;html=1;align=center;verticalAlign=middle;resizable=0;points=[];" vertex="1" connectable="0" parent="eM-Wl2CZVnbGgz_lJjR4-12">
          <mxGeometry x="-0.3863" relative="1" as="geometry">
            <mxPoint as="offset" />
          </mxGeometry>
        </mxCell>
        <mxCell id="eM-Wl2CZVnbGgz_lJjR4-14" value="kết thúc" style="ellipse;whiteSpace=wrap;html=1;" vertex="1" parent="1">
          <mxGeometry x="500" y="760" width="120" height="80" as="geometry" />
        </mxCell>
        <mxCell id="eM-Wl2CZVnbGgz_lJjR4-15" value="" style="endArrow=classic;html=1;rounded=0;" edge="1" parent="1" source="eM-Wl2CZVnbGgz_lJjR4-10" target="eM-Wl2CZVnbGgz_lJjR4-14">
          <mxGeometry width="50" height="50" relative="1" as="geometry">
            <mxPoint x="440" y="790" as="sourcePoint" />
            <mxPoint x="490" y="740" as="targetPoint" />
          </mxGeometry>
        </mxCell>
      </root>
    </mxGraphModel>
  </diagram>
</mxfile>
